<svg width="17" height="17" viewBox="0 0 17 17" fill="none" xmlns="http://www.w3.org/2000/svg">
<path fill-rule="evenodd" clip-rule="evenodd" d="M8.9795 4.49512C8.9795 4.21897 8.75565 3.99512 8.4795 3.99512H1.84314C1.01471 3.99512 0.343138 4.66669 0.343138 5.49512V15.4951C0.343138 16.3235 1.01471 16.9951 1.84314 16.9951H11.8431C12.6716 16.9951 13.3431 16.3235 13.3431 15.4951V8.85875C13.3431 8.58261 13.1193 8.35875 12.8431 8.35875C12.567 8.35875 12.3431 8.58261 12.3431 8.85875V15.4951C12.3431 15.7713 12.1193 15.9951 11.8431 15.9951H1.84314C1.567 15.9951 1.34314 15.7713 1.34314 15.4951V5.49512C1.34314 5.21897 1.567 4.99512 1.84314 4.99512H8.4795C8.75565 4.99512 8.9795 4.77126 8.9795 4.49512Z" fill="black"/>
<path fill-rule="evenodd" clip-rule="evenodd" d="M16.3431 1.49512C16.3431 1.21897 16.1193 0.995117 15.8431 0.995117H10.8431C10.567 0.995117 10.3431 1.21897 10.3431 1.49512C10.3431 1.77126 10.567 1.99512 10.8431 1.99512H14.636L6.48959 10.1416C6.29433 10.3368 6.29433 10.6534 6.48959 10.8487C6.68485 11.0439 7.00143 11.0439 7.1967 10.8487L15.3431 2.70222V6.49512C15.3431 6.77126 15.567 6.99512 15.8431 6.99512C16.1193 6.99512 16.3431 6.77126 16.3431 6.49512V1.49512Z" fill="black"/>
</svg>
